HIERARCHY
ROOT Hips
{
	OFFSET 0.000000 0.000000 0.000000
	CHANNELS 6 Xposition Yposition Zposition Zrotation Yrotation Xrotation 
	JOINT LHipJoint
	{
		OFFSET 0.000000 0.000000 0.000000
		CHANNELS 3 Zrotation Yrotation Xrotation
		JOINT LeftUpLeg
		{
			OFFSET 1.363060 -1.794630 0.839290
			CHANNELS 3 Zrotation Yrotation Xrotation
			JOINT LeftLeg
			{
				OFFSET 2.448110 -6.726130 0.000000
				CHANNELS 3 Zrotation Yrotation Xrotation
				JOINT LeftFoot
				{
					OFFSET 2.562200 -7.039590 0.000000
					CHANNELS 3 Zrotation Yrotation Xrotation
					JOINT LeftToeBase
					{
						OFFSET 0.157640 -0.433110 2.322550
						CHANNELS 3 Zrotation Yrotation Xrotation
						End Site
						{
							OFFSET 0.000000 0.000000 0.000000
						}
					}
				}
			}
		}
	}
	JOINT RHipJoint
	{
		OFFSET 0.000000 0.000000 0.000000
		CHANNELS 3 Zrotation Yrotation Xrotation
		JOINT RightUpLeg
		{
			OFFSET -1.305520 -1.794630 0.839290
			CHANNELS 3 Zrotation Yrotation Xrotation
			JOINT RightLeg
			{
				OFFSET -2.542530 -6.985550 0.000000
				CHANNELS 3 Zrotation Yrotation Xrotation
				JOINT RightFoot
				{
					OFFSET -2.568260 -7.056230 0.000000
					CHANNELS 3 Zrotation Yrotation Xrotation
					JOINT RightToeBase
					{
						OFFSET -0.164730 -0.452590 2.363150
						CHANNELS 3 Zrotation Yrotation Xrotation
						End Site
						{
							OFFSET 0.000000 0.000000 0.000000
						}
					}
				}
			}
		}
	}
}
MOTION
Frames: 19
Frame Time: 0.008333
4.091769 17.300500 -0.201368 162.560986 -78.606535 -152.460615 -10.744389 1.754033 0.815812 -6.289826 10.604495 -21.182413 -0.659257 0.617605 26.791185 3.435208 23.571976 1.770811 4.342100 -0.000000 -46.769100 9.380953 -2.012382 3.167754 6.886446 2.917293 -13.096090 1.975891 0.024263 14.033737 -1.280873 -4.231784 -9.051803 -0.115000 0.000001 -57.414400
4.104524 17.306917 -0.235621 161.335347 -78.502761 -151.563867 -10.697939 1.686855 0.795633 -6.434082 9.983027 -22.153252 -0.571290 0.783972 29.114842 3.372250 23.194850 2.321410 4.449600 0.000001 -45.466000 9.462575 -1.981502 3.071087 6.651834 2.794120 -12.603256 1.941545 0.010856 13.864543 -1.272169 -4.205264 -9.030313 -0.113500 -0.000000 -57.309500
4.118552 17.313188 -0.267915 159.929956 -78.514398 -150.413625 -10.645817 1.609820 0.796987 -6.619129 9.333944 -23.279397 -0.506749 0.934321 31.227118 3.267267 22.498887 2.789456 4.447700 0.000000 -43.799500 9.546361 -1.948499 2.967478 6.431654 2.583117 -12.206315 1.909898 0.003087 13.684000 -1.267636 -4.197615 -9.009269 -0.113000 -0.000000 -57.192500
4.133688 17.319542 -0.298592 158.286491 -78.642757 -148.943792 -10.583130 1.520975 0.824771 -6.847865 8.636804 -24.543497 -0.465313 1.063545 33.040272 3.131783 21.557709 3.161285 4.350900 0.000000 -42.101000 9.634573 -1.912706 2.857240 6.222514 2.282857 -11.916515 1.879927 0.000261 13.497559 -1.267902 -4.213142 -8.985525 -0.114000 -0.000001 -57.082500
4.149896 17.326146 -0.327972 156.347107 -78.883554 -147.089645 -10.504056 1.418093 0.881799 -7.121640 7.878125 -25.935921 -0.449218 1.168153 34.494415 2.976303 20.438743 3.391685 4.165999 -0.000000 -40.311700 9.729158 -1.873384 2.742233 6.023541 1.900590 -11.745264 1.850745 0.001571 13.312700 -1.274177 -4.257885 -8.959703 -0.116800 -0.000000 -56.975200
4.167280 17.333191 -0.356285 154.041426 -79.228686 -144.775213 -10.402481 1.299713 0.972496 -7.439258 7.035204 -27.446281 -0.458902 1.245279 35.536413 2.813255 19.232306 3.479828 3.924400 0.000000 -38.606600 9.832128 -1.828929 2.624093 5.834658 1.446944 -11.703680 1.821405 0.006236 13.136564 -1.287953 -4.339628 -8.931377 -0.121601 0.000000 -56.872800
4.185670 17.340839 -0.383684 151.290059 -79.663884 -141.911104 -10.272071 1.166511 1.102664 -7.796375 6.080845 -29.063243 -0.493828 1.292606 36.121657 2.655462 18.035324 3.458271 3.668600 -0.000000 -37.264900 9.945585 -1.777329 2.505256 5.655680 0.938245 -11.801439 1.790828 0.013848 12.975036 -1.310961 -4.467195 -8.900127 -0.128999 0.000000 -56.776300
4.205183 17.349105 -0.410157 148.008770 -80.169963 -138.409045 -10.106828 1.021165 1.277233 -8.181714 4.991333 -30.774859 -0.554634 1.309181 36.222191 2.512855 16.921988 3.349897 3.428200 -0.000001 -36.351101 10.070809 -1.715611 2.386657 5.489455 0.391444 -12.043682 1.758383 0.024123 12.833351 -1.344571 -4.647175 -8.866291 -0.139400 -0.000000 -56.679600
4.225675 17.357968 -0.435587 144.109564 -80.720664 -134.175407 -9.901902 0.869633 1.501751 -8.578243 3.743888 -32.566256 -0.641794 1.294695 35.818908 2.393749 15.953041 3.189629 3.228900 -0.000001 -35.901099 10.207985 -1.639965 2.268528 5.338326 -0.173931 -12.430498 1.723409 0.037467 12.713915 -1.389987 -4.885044 -8.830355 -0.153300 0.000000 -56.577300
4.247403 17.367278 -0.459622 139.512186 -81.286090 -129.131857 -9.655046 0.719536 1.781653 -8.958856 2.320262 -34.421477 -0.755659 1.249155 34.904757 2.303570 15.165529 3.012578 3.087200 0.000000 -35.898000 10.354903 -1.545954 2.147573 5.207720 -0.745346 -12.956783 1.686244 0.054227 12.620038 -1.446887 -5.178478 -8.792024 -0.171200 0.000000 -56.466400
4.270449 17.376800 -0.481864 134.159023 -81.829117 -123.222426 -9.368136 0.579919 2.122699 -9.290513 0.706956 -36.324093 -0.895615 1.171823 33.481103 2.246149 14.582826 2.860923 3.016600 0.000000 -36.280900 10.505719 -1.428984 2.019075 5.100785 -1.309257 -13.611361 1.647404 0.075419 12.551076 -1.514371 -5.522417 -8.750034 -0.193400 0.000000 -56.343800
4.294843 17.386305 -0.501868 128.054677 -82.309170 -116.455419 -9.049151 0.458148 2.528582 -9.535320 -1.094408 -38.262607 -1.060310 1.060646 31.566621 2.221758 14.201808 2.762191 3.020000 0.000000 -36.873501 10.649111 -1.286156 1.877984 5.019756 -1.847734 -14.375531 1.607671 0.102363 12.501804 -1.591744 -5.912919 -8.702866 -0.220700 0.000000 -56.205900
4.320962 17.395474 -0.519138 121.272225 -82.691320 -108.915822 -8.711056 0.356479 2.999956 -9.651657 -3.069554 -40.229650 -1.245091 0.911064 29.195850 2.227110 14.000786 2.744715 3.096800 -0.000001 -37.511400 10.771103 -1.117497 1.716410 4.966553 -2.355495 -15.227224 1.569398 0.135041 12.468072 -1.676510 -6.336864 -8.649129 -0.253200 0.000000 -56.054800
4.348938 17.404008 -0.533296 113.987503 -82.950841 -100.789654 -8.370186 0.271212 3.532199 -9.600548 -5.183015 -42.229430 -1.441737 0.717212 26.425648 2.254255 13.937559 2.833481 3.241100 0.000000 -38.060300 10.857116 -0.927910 1.529424 4.944391 -2.826244 -16.144488 1.535580 0.172425 12.443817 -1.766565 -6.782997 -8.587586 -0.291300 -0.000000 -55.890700
4.379057 17.411722 -0.544276 106.462141 -83.073864 -92.354784 -8.041462 0.194208 4.112032 -9.359381 -7.376108 -44.272620 -1.640656 0.474654 23.334731 2.289850 13.949477 3.041588 3.438700 0.000000 -38.373700 10.897816 -0.725177 1.315503 4.952035 -3.256883 -17.107420 1.509041 0.212048 12.423678 -1.859624 -7.238519 -8.519070 -0.334400 -0.000000 -55.714700
4.411494 17.418452 -0.551888 98.962700 -83.072251 -83.894465 -7.737934 0.115694 4.718759 -8.917475 -9.567375 -46.382959 -1.831508 0.185127 20.026484 2.314032 13.952488 3.397149 3.671400 0.000000 -38.598200 10.889436 -0.520741 1.077363 5.001332 -3.650264 -18.099587 1.493487 0.251135 12.400636 -1.953734 -7.694298 -8.439210 -0.383100 0.000000 -55.536700
4.446175 17.424164 -0.556881 91.805617 -82.949498 -75.742542 -7.463438 0.030702 5.323170 -8.319606 -11.661813 -48.576266 -2.014232 -0.142885 16.613643 2.304434 13.850428 3.890191 3.905500 0.000001 -38.659800 10.840242 -0.321907 0.823598 5.078983 -4.007442 -19.114380 1.489210 0.286516 12.377766 -2.046137 -8.134039 -8.353699 -0.435600 0.000000 -55.356700
4.477468 17.426879 -0.548954 78.589981 -82.737675 -61.497271 -7.230671 -0.045981 6.139913 -7.099370 -14.471190 -51.145409 -2.091697 -0.481820 13.342603 2.266458 13.662594 4.674676 4.177600 0.000001 -38.710700 10.698687 -0.144832 0.349632 5.604991 -5.316049 -20.073753 1.597403 0.350580 12.130859 -2.089020 -8.375341 -8.208826 -0.485800 0.000000 -55.252700
4.516049 17.430673 -0.550450 73.090800 -82.344072 -54.990647 -7.013092 -0.144150 6.647188 -6.430068 -16.089612 -53.531010 -2.287469 -0.837589 10.047064 2.119931 13.051724 5.441068 4.298399 0.000000 -38.918700 10.602927 0.022898 0.095461 5.724545 -5.619952 -21.132699 1.619622 0.369246 12.130978 -2.167692 -8.730397 -8.123207 -0.539200 0.000000 -55.097500
